<svg width="22" height="22" viewBox="0 0 22 22" fill="none" xmlns="http://www.w3.org/2000/svg">
<path d="M18.0301 13.1276C16.8671 11.9646 15.479 11.1086 13.9644 10.5989C15.3612 9.56657 16.2688 7.90847 16.2688 6.04222C16.2688 2.91945 13.7283 0.378906 10.6055 0.378906C7.48266 0.378906 4.94211 2.91945 4.94211 6.04222C4.94211 7.90851 5.84971 9.56661 7.24649 10.5989C5.73187 11.1085 4.3439 11.9646 3.18082 13.1276C1.19767 15.1108 0.105469 17.7476 0.105469 20.5523C0.105469 21.0088 0.475553 21.3789 0.932098 21.3789H20.2788C20.7353 21.3789 21.1054 21.0088 21.1054 20.5523C21.1055 17.7476 20.0133 15.1108 18.0301 13.1276ZM6.59545 6.04222C6.59545 3.83107 8.39432 2.0322 10.6055 2.0322C12.8167 2.0322 14.6156 3.83107 14.6156 6.04222C14.6156 8.25337 12.8167 10.0522 10.6055 10.0522C8.39432 10.0523 6.59545 8.25337 6.59545 6.04222ZM1.79708 19.7256C2.21519 15.2336 6.0061 11.7055 10.6055 11.7055C15.2048 11.7055 18.9957 15.2336 19.4139 19.7256H1.79708Z" fill="black"/>
</svg>
