<svg width="26" height="24" viewBox="0 0 26 24" fill="none" xmlns="http://www.w3.org/2000/svg">
<path d="M19.7689 18.1115H9.7681L9.15001 15.6237H22.2196L25.0221 4.34364H6.34747L5.36244 0.378906H0.105469V1.85575H4.21647L8.26989 18.1705C7.08991 18.4255 6.2025 19.4828 6.2025 20.7452C6.2025 22.1974 7.37664 23.3789 8.81991 23.3789C10.2632 23.3789 11.4373 22.1974 11.4373 20.7452C11.4373 20.3304 11.3412 19.9378 11.1706 19.5884H17.4181C17.2476 19.9378 17.1515 20.3304 17.1515 20.7452C17.1515 22.1974 18.3256 23.3789 19.7689 23.3789C21.2121 23.3789 22.3863 22.1974 22.3863 20.7452C22.3862 19.293 21.212 18.1115 19.7689 18.1115ZM6.71436 5.82048H23.1423L21.0736 14.1468H8.78307L6.71436 5.82048ZM8.81991 21.9021C8.18595 21.9021 7.67019 21.3831 7.67019 20.7452C7.67019 20.1073 8.18595 19.5884 8.81991 19.5884C9.45387 19.5884 9.96963 20.1073 9.96963 20.7452C9.96963 21.3831 9.45387 21.9021 8.81991 21.9021ZM19.7689 21.9021C19.1349 21.9021 18.6191 21.3831 18.6191 20.7452C18.6191 20.1073 19.1349 19.5884 19.7689 19.5884C20.4028 19.5884 20.9186 20.1073 20.9186 20.7452C20.9185 21.3831 20.4028 21.9021 19.7689 21.9021Z" fill="black"/>
</svg>
