<svg width="24" height="22" viewBox="0 0 24 22" fill="none" xmlns="http://www.w3.org/2000/svg">
<path d="M11.7382 21.3789L11.2976 21.0807C11.1873 21.0059 8.56717 19.2226 5.90443 16.6803C2.22265 13.1645 0.355469 10.0242 0.355469 7.34703C0.355469 5.12971 1.03828 3.30874 2.33061 2.08084C3.50183 0.967379 5.11724 0.378906 7.00196 0.378906C8.06323 0.378906 9.11733 0.735164 10.1352 1.43807C10.7009 1.82858 11.2415 2.31974 11.7307 2.88441C12.2199 2.31974 12.7605 1.82858 13.3262 1.43807C14.3436 0.735164 15.3977 0.378906 16.4586 0.378906C20.1236 0.378906 23.1055 3.50462 23.1055 7.34703C23.1055 9.911 21.2395 13.0162 17.5597 16.5759C14.9001 19.1486 12.284 20.9955 12.1737 21.0728L11.7382 21.3789ZM7.00196 2.04952C5.5196 2.04952 4.27428 2.48805 3.40105 3.31835C2.43738 4.23384 1.94897 5.58912 1.94897 7.34703C1.94897 9.50378 3.68788 12.3041 6.97766 15.4449C8.91734 17.2968 10.8726 18.7573 11.7227 19.3675C12.5744 18.736 14.546 17.2199 16.4936 15.3342C19.777 12.155 21.5124 9.39311 21.5124 7.34703C21.512 4.42596 19.2452 2.04952 16.4586 2.04952C14.3755 2.04952 12.8059 4.07639 12.3744 4.69744L11.7303 5.62463L11.0861 4.69744C10.6547 4.07639 9.08506 2.04952 7.00196 2.04952Z" fill="black"/>
</svg>
