<svg width="25" height="25" viewBox="0 0 25 25" fill="none" xmlns="http://www.w3.org/2000/svg">
<g clip-path="url(#clip0_71_34731)">
<path d="M12.4984 7.8125L12.4961 13.2782C12.4961 13.4858 12.5785 13.6841 12.725 13.8306L16.635 17.7399L17.7398 16.6351L14.0586 12.9547L14.0608 7.8125H12.4984Z" fill="black"/>
<path d="M14.0625 1.56226C8.56336 1.56226 4.01212 5.64628 3.24987 10.9373H0L3.90625 14.8435L7.81249 10.9373H4.82862C5.57604 6.5105 9.42622 3.12477 14.0625 3.12477C19.2322 3.12477 23.4375 7.33009 23.4375 12.4998C23.4375 17.6695 19.2322 21.8748 14.0625 21.8748C11.1565 21.8748 8.4618 20.5595 6.66962 18.2661L5.43824 19.2274C7.52867 21.9022 10.672 23.4373 14.0625 23.4373C20.0935 23.4373 25 18.53 25 12.4998C25 6.46954 20.0935 1.5623 14.0625 1.56226Z" fill="black"/>
</g>
<defs>
<clipPath id="clip0_71_34731">
<rect width="25" height="25" fill="white"/>
</clipPath>
</defs>
</svg>
