<svg width="37" height="37" viewBox="0 0 37 37" fill="none" xmlns="http://www.w3.org/2000/svg">
<g clip-path="url(#clip0_610_48234)">
<path d="M18.4997 37.0001C28.7168 37.0001 36.9993 28.7175 36.9993 18.5004C36.9993 8.28332 28.7168 0.000732422 18.4997 0.000732422C8.28258 0.000732422 0 8.28332 0 18.5004C0 28.7175 8.28258 37.0001 18.4997 37.0001Z" fill="white"/>
<path d="M19.9923 24.7734C18.5937 24.6652 18.006 23.9717 16.9092 23.3059C16.3064 26.4687 15.5697 29.5007 13.3875 31.0846C12.7131 26.3042 14.3762 22.7136 15.1485 18.9024C13.8321 16.6863 15.3068 12.2258 18.0835 13.3249C21.501 14.6763 15.1248 21.565 19.4053 22.4254C23.874 23.3237 25.6983 14.6714 22.9269 11.8571C18.9228 7.79394 11.2717 11.7648 12.2126 17.5813C12.4417 19.0033 13.9112 19.435 12.7996 21.3971C10.2369 20.8296 9.47246 18.8084 9.57073 16.1138C9.72935 11.7031 13.534 8.61475 17.3501 8.18736C22.1763 7.64719 26.7061 9.95957 27.3314 14.4992C28.0348 19.6229 25.1526 25.1717 19.9923 24.7734Z" fill="#003153"/>
</g>
<defs>
<clipPath id="clip0_610_48234">
<rect width="37" height="37" fill="white"/>
</clipPath>
</defs>
</svg>
